<?xml version="1.0" encoding="UTF-8" standalone="no"?>
<svg
   xmlns:dc="http://purl.org/dc/elements/1.1/"
   xmlns:cc="http://creativecommons.org/ns#"
   xmlns:rdf="http://www.w3.org/1999/02/22-rdf-syntax-ns#"
   xmlns:svg="http://www.w3.org/2000/svg"
   xmlns="http://www.w3.org/2000/svg"
   xmlns:sodipodi="http://sodipodi.sourceforge.net/DTD/sodipodi-0.dtd"
   xmlns:inkscape="http://www.inkscape.org/namespaces/inkscape"
   width="106"
   height="48"
   viewBox="0 0 28.045833 12.7"
   version="1.1"
   id="svg144"
   inkscape:export-filename="C:\Users\BranislavS2\Downloads\Logos\New X logos\logo.png"
   inkscape:export-xdpi="96"
   inkscape:export-ydpi="96"
   inkscape:version="1.0.1 (3bc2e813f5, 2020-09-07)"
   sodipodi:docname="logo.svg">
  <defs
     id="defs138" />
  <sodipodi:namedview
     id="base"
     pagecolor="#ffffff"
     bordercolor="#666666"
     borderopacity="1.0"
     inkscape:pageopacity="0.0"
     inkscape:pageshadow="2"
     inkscape:zoom="11.2"
     inkscape:cx="32.708278"
     inkscape:cy="21.425447"
     inkscape:document-units="mm"
     inkscape:current-layer="layer1"
     inkscape:document-rotation="0"
     showgrid="false"
     units="px"
     inkscape:window-width="2400"
     inkscape:window-height="1271"
     inkscape:window-x="2391"
     inkscape:window-y="-9"
     inkscape:window-maximized="1" />
  <metadata
     id="metadata141">
    <rdf:RDF>
      <cc:Work
         rdf:about="">
        <dc:format>image/svg+xml</dc:format>
        <dc:type
           rdf:resource="http://purl.org/dc/dcmitype/StillImage" />
        <dc:title></dc:title>
      </cc:Work>
    </rdf:RDF>
  </metadata>
  <g
     inkscape:label="Layer 1"
     inkscape:groupmode="layer"
     id="layer1">
    <g
       transform="matrix(0.04112963,0,0,0.05739817,0.08001216,0.03620073)"
       id="g54"
       style="clip-rule:evenodd;fill-rule:evenodd;stroke-linejoin:round;stroke-miterlimit:2">
      <g
         transform="matrix(1.19384,0,0,0.855471,-65.6614,15.8982)"
         id="g4">
        <path
           d="m 242.387,106.856 -17.6,-27.5 h 13.987 L 249.7,97.349 260.622,79.355 H 274.6 l -17.6,27.5 17.6,27.5 H 260.617 L 249.7,116.443 238.778,134.358 h -13.992 z"
           style="fill:#ffffff;fill-rule:nonzero"
           id="path2" />
      </g>
      <g
         transform="matrix(1.19384,0,0,0.855471,-65.6614,15.8982)"
         id="g8">
        <path
           d="m 322.061,115.421 c 0,11.865 -7.308,19.958 -17.758,19.958 -5.579,0 -10.137,-2.828 -12.1,-6.364 v 21.058 H 280.259 V 96.484 H 292.2 v 5.422 c 2.043,-3.615 6.758,-6.443 12.415,-6.443 10.374,0 17.446,8.015 17.446,19.958 z m -12.258,0 c 0,-5.815 -3.693,-9.9 -8.958,-9.9 -5.421,0 -9.114,4.008 -9.114,9.9 0,5.972 3.771,9.979 9.114,9.979 5.265,0 8.955,-4.086 8.955,-9.979 z"
           style="fill:#ffffff;fill-rule:nonzero"
           id="path6" />
      </g>
      <g
         transform="matrix(1.19384,0,0,0.855471,-65.6614,15.8982)"
         id="g12">
        <path
           d="M 366.453,118.721 H 338.48 c 0.236,4.95 3.536,7.622 8.879,7.622 3.693,0 6.051,-1.021 7.072,-3.379 h 11.786 c -1.179,7.465 -8.8,12.415 -18.858,12.415 -12.887,0 -20.822,-7.307 -20.822,-19.958 0,-12.415 8.093,-19.958 20.43,-19.958 11.786,0 19.8,7.307 19.8,17.994 0.008,1.76 -0.097,3.518 -0.314,5.264 z M 354.9,111.256 c -0.078,-5.028 -2.907,-7.7 -8.015,-7.7 -5.185,0 -8.329,3.064 -8.407,7.7 z"
           style="fill:#ffffff;fill-rule:nonzero"
           id="path10" />
      </g>
      <g
         transform="matrix(1.19384,0,0,0.855471,-65.6614,15.8982)"
         id="g16">
        <path
           d="m 373.68,96.484 h 12.02 v 7.937 c 0.972,-4.974 5.383,-8.589 10.451,-8.566 1.057,-0.037 2.114,0.069 3.143,0.315 v 11.157 c -1.198,-0.158 -2.405,-0.237 -3.614,-0.235 -6.523,0 -9.98,4.243 -9.98,12.65 v 14.616 h -12.02 z"
           style="fill:#ffffff;fill-rule:nonzero"
           id="path14" />
      </g>
      <g
         transform="matrix(1.19384,0,0,0.855471,-65.6614,15.8982)"
         id="g20">
        <path
           d="m 404.323,85.876 c -10e-4,-0.039 -10e-4,-0.079 -10e-4,-0.118 0,-4.074 3.352,-7.426 7.426,-7.426 4.074,0 7.426,3.352 7.426,7.426 0,4.074 -3.352,7.426 -7.426,7.426 -0.013,0 -0.026,0 -0.039,0 -0.052,0.001 -0.104,0.002 -0.155,0.002 -3.967,0 -7.231,-3.265 -7.231,-7.231 0,-0.027 0,-0.053 0,-0.079 z m 1.414,10.608 h 11.944 v 37.874 h -11.944 z"
           style="fill:#ffffff;fill-rule:nonzero"
           id="path18" />
      </g>
      <g
         transform="matrix(1.19384,0,0,0.855471,-65.6614,15.8982)"
         id="g24">
        <path
           d="m 464.589,118.721 h -27.974 c 0.236,4.95 3.537,7.622 8.88,7.622 3.693,0 6.05,-1.021 7.072,-3.379 h 11.786 c -1.179,7.465 -8.8,12.415 -18.858,12.415 -12.887,0 -20.823,-7.307 -20.823,-19.958 0,-12.415 8.094,-19.958 20.43,-19.958 11.787,0 19.8,7.307 19.8,17.994 0.008,1.76 -0.096,3.518 -0.313,5.264 z m -11.551,-7.465 c -0.078,-5.028 -2.907,-7.7 -8.015,-7.7 -5.186,0 -8.329,3.064 -8.408,7.7 z"
           style="fill:#ffffff;fill-rule:nonzero"
           id="path22" />
      </g>
      <g
         transform="matrix(1.19384,0,0,0.855471,-65.6614,15.8982)"
         id="g28">
        <path
           d="m 471.816,96.484 h 12.022 v 5.5 c 2.2,-4.242 6.522,-6.521 12.258,-6.521 9.194,0 13.83,5.185 13.83,15.479 v 23.416 h -12.1 v -19.487 c 0,-6.365 -1.808,-9.272 -6.679,-9.272 -4.794,0 -7.308,3.143 -7.308,8.958 v 19.8 h -12.023 z"
           style="fill:#ffffff;fill-rule:nonzero"
           id="path26" />
      </g>
      <g
         transform="matrix(1.19384,0,0,0.855471,-65.6614,15.8982)"
         id="g32">
        <path
           d="m 516.524,115.421 c 0,-11.943 7.779,-19.958 20.272,-19.958 11.315,0 18.7,5.972 19.644,15.4 h -12.022 c -0.865,-3.537 -3.144,-5.187 -7.544,-5.187 -5.185,0 -8.329,3.458 -8.329,9.744 0,6.286 3.144,9.744 8.329,9.744 4.4,0 6.679,-1.572 7.544,-4.872 h 12.022 c -0.943,9.193 -8.329,15.086 -19.644,15.086 -12.496,0.001 -20.272,-8.013 -20.272,-19.957 z"
           style="fill:#ffffff;fill-rule:nonzero"
           id="path30" />
      </g>
      <g
         transform="matrix(1.19384,0,0,0.855471,-65.6614,15.8982)"
         id="g36">
        <path
           d="m 601.619,118.721 h -27.972 c 0.235,4.95 3.535,7.622 8.878,7.622 3.693,0 6.051,-1.021 7.072,-3.379 h 11.786 c -1.178,7.465 -8.8,12.415 -18.858,12.415 -12.886,0 -20.822,-7.307 -20.822,-19.958 0,-12.415 8.093,-19.958 20.429,-19.958 11.787,0 19.8,7.307 19.8,17.994 0.009,1.76 -0.096,3.518 -0.313,5.264 z m -11.55,-7.465 c -0.079,-5.028 -2.908,-7.7 -8.015,-7.7 -5.186,0 -8.329,3.064 -8.407,7.7 z"
           style="fill:#ffffff;fill-rule:nonzero"
           id="path34" />
      </g>
      <g
         transform="matrix(1.19384,0,0,0.855471,-65.6614,15.8982)"
         id="g40">
        <path
           d="m 607.354,127.443 c 0,-0.027 0,-0.053 0,-0.08 0,-4.268 3.512,-7.78 7.78,-7.78 4.268,0 7.78,3.512 7.78,7.78 0,4.268 -3.512,7.78 -7.78,7.78 -10e-4,0 -10e-4,0 -10e-4,0 -0.033,0 -0.065,0.001 -0.098,0.001 -4.214,0 -7.681,-3.468 -7.681,-7.681 0,-0.007 0,-0.013 0,-0.02 z"
           style="fill:#f05a22;fill-rule:nonzero"
           id="path38" />
      </g>
      <g
         transform="matrix(1.19384,0,0,0.855471,-65.6614,15.8982)"
         id="g44">
        <circle
           cx="74.260002"
           cy="74.260002"
           r="19.26"
           style="fill:#f05a22"
           id="circle42" />
      </g>
      <g
         transform="matrix(1.19384,0,0,0.855471,-65.6614,15.8982)"
         id="g48">
        <circle
           cx="123.286"
           cy="110.508"
           r="18.677"
           style="fill:#f05a22"
           id="circle46" />
      </g>
      <g
         transform="matrix(1.19384,0,0,0.855471,-65.6614,15.8982)"
         id="g52">
        <circle
           cx="171.729"
           cy="146.323"
           r="18.677"
           style="fill:#f05a22"
           id="circle50" />
      </g>
    </g>
  </g>
</svg>
