<?xml version="1.0" encoding="UTF-8" standalone="no"?>
<svg width="80px" height="80px" viewBox="0 0 80 80" version="1.1" xmlns="http://www.w3.org/2000/svg" xmlns:xlink="http://www.w3.org/1999/xlink" >
    <g id="link" transform="translate(20.000000, 20.000000)">
        <rect id="Rectangle-path" x="0" y="0" width="40" height="40"></rect>
        <path d="M16.598,29.912 L14.996,31.504 C13.606,32.882 11.346,32.882 9.956,31.504 C9.288,30.842 8.92,29.962 8.92,29.026 C8.92,28.09 9.288,27.21 9.956,26.548 L15.856,20.694 C17.078,19.482 19.38,17.696 21.058,19.358 C21.828,20.122 23.07,20.118 23.834,19.348 C24.598,18.578 24.594,17.336 23.824,16.572 C20.972,13.744 16.762,14.266 13.092,17.906 L7.192,23.762 C5.776,25.168 4.996,27.038 4.996,29.026 C4.996,31.014 5.776,32.884 7.192,34.29 C8.65,35.736 10.564,36.458 12.478,36.458 C14.392,36.458 16.306,35.736 17.764,34.288 L19.368,32.696 C20.138,31.932 20.142,30.69 19.378,29.92 C18.614,29.15 17.368,29.148 16.598,29.912 L16.598,29.912 Z M34.482,7.168 C31.422,4.13 27.14,3.966 24.306,6.778 L22.308,8.762 C21.538,9.526 21.532,10.768 22.296,11.538 C23.062,12.308 24.304,12.312 25.074,11.548 L27.072,9.566 C28.538,8.108 30.462,8.712 31.716,9.956 C32.384,10.62 32.752,11.5 32.752,12.434 C32.752,13.37 32.384,14.25 31.716,14.912 L25.422,21.158 C22.544,24.014 21.192,22.674 20.616,22.102 C19.846,21.338 18.604,21.344 17.84,22.112 C17.074,22.88 17.08,24.124 17.85,24.888 C19.172,26.198 20.68,26.848 22.262,26.848 C24.198,26.848 26.242,25.874 28.188,23.942 L34.482,17.696 C35.898,16.29 36.68,14.42 36.68,12.43 C36.68,10.446 35.898,8.576 34.482,7.168 L34.482,7.168 Z" id="Shape" fill="#000000"></path>
    </g>
</svg>