<?xml version="1.0" encoding="UTF-8" standalone="no"?>
<svg width="80px" height="80px" viewBox="0 0 80 80" version="1.1" xmlns="http://www.w3.org/2000/svg" xmlns:xlink="http://www.w3.org/1999/xlink" >
    <g transform="translate(20.000000, 20.000000)">
        <rect id="Rectangle-path" x="0" y="0" width="40" height="40"></rect>
        <path d="M14.13,22.002 L25.218,22.002 L25.218,18.438 L14.13,18.438 L14.13,22.002 L14.13,22.002 Z M29.532,2.458 L9.732,2.458 C7.552,2.458 5.772,4.24 5.772,6.418 L5.772,34.14 C5.772,36.32 7.554,38.1 9.732,38.1 L29.532,38.1 C31.71,38.1 33.492,36.318 33.492,34.14 L33.492,6.418 C33.492,4.24 31.708,2.458 29.532,2.458 L29.532,2.458 Z M29.532,34.14 L9.732,34.14 L9.732,6.418 L29.532,6.418 L29.532,34.14 L29.532,34.14 Z M25.176,10.714 L14.086,10.714 L14.086,14.178 L25.176,14.178 L25.176,10.714 L25.176,10.714 Z M25.176,26.26 L14.086,26.26 L14.086,29.724 L25.176,29.724 L25.176,26.26 L25.176,26.26 Z" id="Shape" fill="#000000"></path>
    </g>
</svg>