<?xml version="1.0" encoding="UTF-8" standalone="no"?>
<svg width="40px" height="40px" viewBox="0 0 40 40" version="1.1" xmlns="http://www.w3.org/2000/svg" xmlns:xlink="http://www.w3.org/1999/xlink">
    <g>
        <path d="M29.572,28.802 L28.801,29.571 C28.515,29.857 28.187,30 27.816,30 C27.445,30 27.116,29.857 26.831,29.571 L21.392,24.134 C20.193,24.762 18.908,25.076 17.538,25.076 C15.396,25.076 13.605,24.348 12.163,22.892 C10.721,21.436 10,19.651 10,17.538 C10,15.397 10.721,13.605 12.163,12.163 C13.605,10.721 15.396,10 17.538,10 C19.651,10 21.434,10.721 22.89,12.163 C24.347,13.605 25.075,15.397 25.075,17.538 C25.075,18.937 24.761,20.222 24.132,21.393 L29.572,26.832 C29.857,27.118 30,27.446 30,27.817 C30,28.188 29.857,28.517 29.572,28.802 L29.572,28.802 Z M13.662,21.414 C14.732,22.485 16.024,23.02 17.538,23.02 C19.051,23.02 20.343,22.485 21.413,21.414 C22.484,20.344 23.019,19.052 23.019,17.538 C23.019,16.025 22.484,14.733 21.413,13.662 C20.343,12.592 19.051,12.056 17.538,12.056 C16.024,12.056 14.732,12.592 13.662,13.662 C12.591,14.733 12.056,16.025 12.056,17.538 C12.056,19.052 12.591,20.344 13.662,21.414 L13.662,21.414 Z"></path>
    </g>
</svg>