<?xml version="1.0" encoding="UTF-8" standalone="no"?>
<svg width="80px" height="80px" viewBox="0 0 80 80" version="1.1" xmlns="http://www.w3.org/2000/svg" xmlns:xlink="http://www.w3.org/1999/xlink">
    <g transform="translate(20.000000, 20.000000)">
        <rect id="Rectangle-path" sketch:type="MSShapeGroup" x="0" y="0" width="40" height="40"></rect>
        <path d="M11.542,27.436 C7.064,22.62 7.144,15.07 11.796,10.386 C13.7,8.468 16.082,7.322 18.558,6.946 L18.418,2.836 C14.946,3.258 11.584,4.808 8.92,7.49 C2.686,13.77 2.612,23.906 8.676,30.324 L5.23,33.796 L16.14,34.392 L16.108,22.84 L11.542,27.436 L11.542,27.436 Z M24.704,3.756 L24.736,15.308 L29.302,10.708 C33.782,15.524 33.702,23.074 29.05,27.758 C27.146,29.676 24.764,30.82 22.288,31.198 L22.426,35.31 C25.9,34.888 29.262,33.338 31.924,30.656 C38.16,24.376 38.234,14.24 32.168,7.822 L35.614,4.352 L24.704,3.756 L24.704,3.756 Z" fill="#000000"></path>
    </g>
</svg>